<svg width="16" height="16" viewBox="0 0 16 16" fill="none" xmlns="http://www.w3.org/2000/svg">
<path d="M12.6667 4.66663C12.4899 4.66663 12.3204 4.73686 12.1953 4.86189C12.0703 4.98691 12.0001 5.15648 12.0001 5.33329V12.794C11.981 13.1311 11.8294 13.447 11.5784 13.6729C11.3274 13.8988 10.9974 14.0163 10.6601 14H5.34008C5.00281 14.0163 4.67274 13.8988 4.42175 13.6729C4.17077 13.447 4.01921 13.1311 4.00008 12.794V5.33329C4.00008 5.15648 3.92984 4.98691 3.80482 4.86189C3.67979 4.73686 3.51023 4.66663 3.33341 4.66663C3.1566 4.66663 2.98703 4.73686 2.86201 4.86189C2.73699 4.98691 2.66675 5.15648 2.66675 5.33329V12.794C2.68578 13.4848 2.9778 14.1399 3.47887 14.6159C3.97993 15.0918 4.6492 15.3498 5.34008 15.3333H10.6601C11.351 15.3498 12.0202 15.0918 12.5213 14.6159C13.0224 14.1399 13.3144 13.4848 13.3334 12.794V5.33329C13.3334 5.15648 13.2632 4.98691 13.1382 4.86189C13.0131 4.73686 12.8436 4.66663 12.6667 4.66663Z" fill="#A3A3A3"/>
<path d="M13.3333 2.66663H10.6667V1.33329C10.6667 1.15648 10.5964 0.986912 10.4714 0.861888C10.3464 0.736864 10.1768 0.666626 10 0.666626H6C5.82319 0.666626 5.65362 0.736864 5.5286 0.861888C5.40357 0.986912 5.33333 1.15648 5.33333 1.33329V2.66663H2.66667C2.48986 2.66663 2.32029 2.73686 2.19526 2.86189C2.07024 2.98691 2 3.15648 2 3.33329C2 3.5101 2.07024 3.67967 2.19526 3.8047C2.32029 3.92972 2.48986 3.99996 2.66667 3.99996H13.3333C13.5101 3.99996 13.6797 3.92972 13.8047 3.8047C13.9298 3.67967 14 3.5101 14 3.33329C14 3.15648 13.9298 2.98691 13.8047 2.86189C13.6797 2.73686 13.5101 2.66663 13.3333 2.66663ZM6.66667 2.66663V1.99996H9.33333V2.66663H6.66667Z" fill="#A3A3A3"/>
<path d="M7.33333 11.3333V6.66667C7.33333 6.48986 7.2631 6.32029 7.13807 6.19526C7.01305 6.07024 6.84348 6 6.66667 6C6.48986 6 6.32029 6.07024 6.19526 6.19526C6.07024 6.32029 6 6.48986 6 6.66667V11.3333C6 11.5101 6.07024 11.6797 6.19526 11.8047C6.32029 11.9298 6.48986 12 6.66667 12C6.84348 12 7.01305 11.9298 7.13807 11.8047C7.2631 11.6797 7.33333 11.5101 7.33333 11.3333Z" fill="#A3A3A3"/>
<path d="M10.0001 11.3333V6.66667C10.0001 6.48986 9.92984 6.32029 9.80482 6.19526C9.67979 6.07024 9.51023 6 9.33341 6C9.1566 6 8.98703 6.07024 8.86201 6.19526C8.73699 6.32029 8.66675 6.48986 8.66675 6.66667V11.3333C8.66675 11.5101 8.73699 11.6797 8.86201 11.8047C8.98703 11.9298 9.1566 12 9.33341 12C9.51023 12 9.67979 11.9298 9.80482 11.8047C9.92984 11.6797 10.0001 11.5101 10.0001 11.3333Z" fill="#A3A3A3"/>
</svg>
