<svg width="15" height="15" viewBox="0 0 15 15" fill="none" xmlns="http://www.w3.org/2000/svg">
<g clip-path="url(#clip0_643_4699)">
<path d="M11.6588 9.6707C11.2558 9.6707 10.9301 9.99642 10.9301 10.3994V12.6881C10.9301 13.0904 10.6037 13.4168 10.2015 13.4168H2.18601C1.78377 13.4168 1.45735 13.0904 1.45735 12.6881V3.2154C1.45735 2.81316 1.7838 2.48674 2.18601 2.48674H6.41959C6.82254 2.48674 7.14825 2.16102 7.14825 1.75808C7.14825 1.35514 6.82254 1.02942 6.41959 1.02942H2.18601C0.980784 1.02936 0 2.01017 0 3.2154V12.6881C0 13.8934 0.980784 14.8741 2.18601 14.8741H10.2014C11.4066 14.8741 12.3874 13.8941 12.3874 12.6881V10.3994C12.3874 9.99642 12.0617 9.6707 11.6588 9.6707Z" fill="#333333" fill-opacity="0.45"/>
<path d="M14.1852 0.936818C13.6562 0.407814 12.9654 0.141099 12.2695 0.126539C11.5372 0.110514 10.8005 0.375734 10.2467 0.930256L5.3136 5.86338C4.59367 6.58624 4.19727 7.54517 4.19727 8.56383V10.1961C4.19727 10.599 4.52298 10.9247 4.92592 10.9247H6.55814C7.57684 10.9247 8.53576 10.5283 9.25933 9.80764L14.1859 4.88108C15.2716 3.79468 15.2716 2.02401 14.1852 0.936818ZM8.22976 8.77664C7.78308 9.22186 7.18848 9.46742 6.5582 9.46742H5.65461V8.56386C5.65461 7.93355 5.90018 7.33895 6.34466 6.893L9.59673 3.64093L11.4811 5.52527L8.22976 8.77664ZM13.1549 3.85151L12.5114 4.49495L10.6271 2.61061L11.2705 1.9672C11.7908 1.44693 12.636 1.44839 13.1548 1.9672C13.6737 2.48671 13.6737 3.33197 13.1549 3.85151Z" fill="#333333" fill-opacity="0.45"/>
</g>
<defs>
<clipPath id="clip0_643_4699">
<rect width="15" height="15" fill="white"/>
</clipPath>
</defs>
</svg>
