<svg width="18" height="18" viewBox="0 0 18 18" fill="none" xmlns="http://www.w3.org/2000/svg">
<g clip-path="url(#clip0_842_1013)">
<path d="M5.70002 6.3188H9.00002C9.34174 6.3188 9.61877 6.04177 9.61877 5.70005C9.61877 5.35833 9.34174 5.0813 9.00002 5.0813H5.70002C5.35831 5.0813 5.08127 5.35833 5.08127 5.70005C5.08127 6.04177 5.35831 6.3188 5.70002 6.3188Z" fill="#333333" fill-opacity="0.45"/>
<path d="M12.9188 9.0001C12.9188 8.65838 12.6417 8.38135 12.3 8.38135H5.70001C5.3583 8.38135 5.08126 8.65838 5.08126 9.0001C5.08126 9.34181 5.3583 9.61885 5.70001 9.61885H12.3C12.6417 9.61885 12.9188 9.34181 12.9188 9.0001Z" fill="#333333" fill-opacity="0.45"/>
<path fill-rule="evenodd" clip-rule="evenodd" d="M8.14727 0.131104H9.85271C10.9844 0.131104 11.8716 0.131095 12.5847 0.189357C13.3108 0.248683 13.9106 0.371492 14.4536 0.648139C15.3462 1.10294 16.0719 1.82864 16.5267 2.72123C16.8033 3.2642 16.9262 3.86406 16.9855 4.59018C17.0437 5.30326 17.0437 6.19049 17.0437 7.32215V9.59649C17.0437 9.80811 17.0437 9.93689 17.0385 10.0492C16.9227 12.4927 14.9679 14.4476 12.5243 14.5633C12.412 14.5686 12.2702 14.5686 12.035 14.5686H12.0116L11.9494 14.5687C11.234 14.5732 10.5371 14.7966 9.95228 15.2087L9.91169 15.2376L7.75787 16.7761C6.51666 17.6626 4.88561 16.3823 5.45211 14.966C5.52825 14.7757 5.38806 14.5686 5.18305 14.5686H4.68661C2.62638 14.5686 0.956238 12.8985 0.956238 10.8382V7.32217C0.956238 6.1905 0.95623 5.30327 1.01449 4.59018C1.07382 3.86406 1.19663 3.2642 1.47327 2.72123C1.92807 1.82864 2.65377 1.10294 3.54637 0.648139C4.08933 0.371492 4.68919 0.248683 5.41531 0.189357C6.1284 0.131095 7.01563 0.131104 8.14727 0.131104ZM5.51608 1.42275C4.86649 1.47582 4.44761 1.57782 4.10818 1.75076C3.44844 2.08691 2.91205 2.6233 2.57589 3.28305C2.40295 3.62248 2.30095 4.04136 2.24788 4.69094C2.19422 5.34776 2.19374 6.18453 2.19374 7.34985V10.8382C2.19374 12.215 3.30983 13.3311 4.68661 13.3311H5.18305C6.26355 13.3311 7.00239 14.4224 6.6011 15.4256C6.49361 15.6943 6.80309 15.9373 7.03859 15.7691L9.2394 14.1971C10.0307 13.6396 10.9736 13.3374 11.9415 13.3312L12.0116 13.3311C12.277 13.3311 12.3869 13.3309 12.4658 13.3271C14.2719 13.2417 15.7168 11.7968 15.8023 9.99068C15.8061 9.91148 15.8062 9.81421 15.8062 9.57636V7.34985C15.8062 6.18453 15.8057 5.34776 15.7521 4.69094C15.699 4.04136 15.597 3.62248 15.4241 3.28305C15.0879 2.6233 14.5515 2.08691 13.8918 1.75076C13.5523 1.57782 13.1335 1.47582 12.4839 1.42275C11.8271 1.36908 10.9903 1.3686 9.82499 1.3686H8.17499C7.00967 1.3686 6.17289 1.36908 5.51608 1.42275Z" fill="#333333" fill-opacity="0.45"/>
</g>
<defs>
<clipPath id="clip0_842_1013">
<rect width="18" height="18" fill="white"/>
</clipPath>
</defs>
</svg>
