<svg width="16" height="18" viewBox="0 0 16 18" fill="none" xmlns="http://www.w3.org/2000/svg">
<path opacity="0.6" d="M7.99999 17.2754C7.64059 17.2748 7.28703 17.1844 6.97137 17.0126L0.913715 13.7107C0.686472 13.5874 0.496731 13.405 0.364514 13.1828C0.232297 12.9606 0.162506 12.7069 0.162506 12.4483C0.162506 12.1898 0.232297 11.936 0.364514 11.7138C0.496731 11.4916 0.686472 11.3093 0.913715 11.1859L1.89371 10.651L0.913715 10.1199C0.686472 9.99657 0.496731 9.81419 0.364514 9.592C0.232297 9.36981 0.162506 9.11605 0.162506 8.8575C0.162506 8.59895 0.232297 8.34519 0.364514 8.123C0.496731 7.90081 0.686472 7.71843 0.913715 7.5951L1.89371 7.06396L0.913715 6.53001C0.686472 6.40668 0.496731 6.2243 0.364514 6.00211C0.232297 5.77992 0.162506 5.52616 0.162506 5.26761C0.162506 5.00906 0.232297 4.7553 0.364514 4.53311C0.496731 4.31092 0.686472 4.12854 0.913715 4.00521L6.96856 0.707069C7.28498 0.534043 7.63982 0.443359 8.00046 0.443359C8.36109 0.443359 8.71594 0.534043 9.03235 0.707069L15.0863 4.00895C15.3135 4.13228 15.5033 4.31466 15.6355 4.53685C15.7677 4.75904 15.8375 5.0128 15.8375 5.27135C15.8375 5.5299 15.7677 5.78366 15.6355 6.00585C15.5033 6.22804 15.3135 6.41042 15.0863 6.53375L14.1072 7.0677L15.0863 7.60258C15.3135 7.72591 15.5033 7.90829 15.6355 8.13048C15.7677 8.35267 15.8375 8.60643 15.8375 8.86498C15.8375 9.12354 15.7677 9.37729 15.6355 9.59948C15.5033 9.82167 15.3135 10.0041 15.0863 10.1274L14.1072 10.6613L15.0863 11.1962C15.3135 11.3195 15.5033 11.5019 15.6355 11.7241C15.7677 11.9463 15.8375 12.2001 15.8375 12.4586C15.8375 12.7172 15.7677 12.9709 15.6355 13.1931C15.5033 13.4153 15.3135 13.5977 15.0863 13.721L9.03142 17.0117C8.71495 17.1841 8.3604 17.2748 7.99999 17.2754ZM3.3927 11.4721L1.60102 12.4493L7.65587 15.7521C7.76127 15.8096 7.87944 15.8398 7.99952 15.8398C8.11961 15.8398 8.23777 15.8096 8.34318 15.7521L14.399 12.4493L12.6026 11.4721L9.03142 13.4227C8.715 13.5957 8.36016 13.6864 7.99952 13.6864C7.63889 13.6864 7.28404 13.5957 6.96763 13.4227L3.3927 11.4721ZM3.3927 7.88312L1.60102 8.85937L7.65587 12.1622C7.76127 12.2197 7.87944 12.2499 7.99952 12.2499C8.11961 12.2499 8.23777 12.2197 8.34318 12.1622L14.399 8.85937L12.6026 7.88218L9.03142 9.83189C8.715 10.0049 8.36016 10.0956 7.99952 10.0956C7.63889 10.0956 7.28404 10.0049 6.96763 9.83189L3.3927 7.88312ZM7.99999 1.8797C7.87975 1.87984 7.76145 1.91006 7.65587 1.9676L1.60102 5.26948L7.65587 8.57229C7.76127 8.62983 7.87944 8.65998 7.99952 8.65998C8.11961 8.65998 8.23777 8.62983 8.34318 8.57229L14.399 5.26948L8.34318 1.96666C8.23793 1.90913 8.11994 1.87891 7.99999 1.87876V1.8797Z" fill="#478CCF"/>
</svg>
